<svg width="48" height="48" viewBox="0 0 48 48" fill="none" xmlns="http://www.w3.org/2000/svg">
<path d="M41.7746 28.7588L41.792 28.7243L41.8044 28.6849L44.0991 21.3666C44.3659 20.5743 44.5 19.7662 44.5 18.9442C44.5 17.363 43.9794 16.0387 42.9184 15.0173C41.8805 13.9937 40.5171 13.5 38.8805 13.5C37.3462 13.5 35.9221 13.8532 34.6171 14.5627C33.5601 15.1174 32.5791 16.013 31.6666 17.222C31.3981 16.3121 30.9044 15.5315 30.1818 14.8934C29.1704 13.9527 27.863 13.5 26.3075 13.5C24.9068 13.5 23.5913 13.7876 22.3673 14.3657L22.3673 14.3657L22.3634 14.3676C21.43 14.8182 20.5481 15.5315 19.7131 16.4874C19.5363 15.7663 19.1796 15.144 18.6311 14.6386C17.8127 13.8611 16.7115 13.5 15.3909 13.5C13.7878 13.5 12.2456 13.7297 10.7663 14.1906C10.0318 14.4072 9.42917 14.6516 8.98001 14.9333C8.54015 15.2091 8.18328 15.5614 8.05886 16.0192C7.96223 16.3428 7.94791 16.712 8.16304 17.0307L8.57745 16.7509L8.16304 17.0307C8.30427 17.2399 8.52289 17.4481 8.7827 17.6544C9.01807 17.8644 9.15317 18.0141 9.21706 18.1088L9.23206 18.131L9.24934 18.1515C9.27313 18.1796 9.31969 18.2595 9.31969 18.461C9.31969 18.6569 9.29614 18.7563 9.28097 18.7937L9.27322 18.8128L9.26707 18.8326L5.9168 29.5761L5.91674 29.576L5.9146 29.5833C5.74783 30.148 5.56178 30.4968 5.38632 30.6874C5.17947 30.9121 4.91372 31.1142 4.58077 31.2896C4.09958 31.5413 3.70768 31.8825 3.54885 32.3531L3.53989 32.3796L3.53396 32.407C3.47869 32.6617 3.48745 32.9225 3.58598 33.1712C3.68373 33.4179 3.85496 33.6152 4.06378 33.7698L4.06375 33.7699L4.0697 33.7741C4.47913 34.0682 5.0788 34.1654 5.75419 34.1654H14.3369C15.1533 34.1654 15.8219 34.0923 16.2899 33.9074C16.7758 33.7154 17.1443 33.3806 17.2987 32.8848L17.2988 32.8848L17.3017 32.875C17.3805 32.6025 17.3761 32.3021 17.2111 32.0303C17.097 31.8427 16.9281 31.6672 16.734 31.5025C16.5346 31.3272 16.3917 31.1743 16.2955 31.0441C16.2362 30.9448 16.1921 30.7988 16.1921 30.5799C16.1921 30.4002 16.2284 30.1987 16.3119 29.972L16.3162 29.9603L16.3199 29.9483L18.7998 22.0075C19.0819 21.2695 19.4126 20.798 19.761 20.5304L19.7677 20.5252L19.7741 20.5199C20.1694 20.1946 20.4998 20.0762 20.774 20.0762C20.9534 20.0762 21.075 20.1302 21.1755 20.2294L21.1976 20.2512L21.2222 20.2701C21.3076 20.3357 21.3656 20.427 21.3656 20.6171C21.3656 20.7235 21.3287 20.9155 21.2115 21.2163L21.2111 21.2174L19.1422 26.5667C19.1419 26.5674 19.1417 26.568 19.1414 26.5686C18.6743 27.7479 18.4294 28.8396 18.4294 29.8364H18.4293L18.4295 29.8464C18.4575 31.2575 19.0275 32.4154 20.1264 33.2781L20.1264 33.2781L20.1327 33.2829C21.2243 34.1121 22.6598 34.5 24.3877 34.5C25.7925 34.5 27.0197 34.2819 28.053 33.8254L28.053 33.8254L28.0583 33.823C29.092 33.3519 29.9074 32.7477 30.4719 31.9952L30.4719 31.9952L30.477 31.9882C30.7592 31.5981 30.9717 31.1957 31.1083 30.7826C31.3218 31.7764 31.8541 32.6146 32.6994 33.2781L32.6993 33.2781L32.7056 33.2829C33.7972 34.1121 35.2327 34.5 36.9607 34.5C38.3655 34.5 39.5926 34.2819 40.6259 33.8254L40.6259 33.8254L40.6312 33.823C41.6649 33.3519 42.4803 32.7477 43.0448 31.9952L43.0449 31.9952L43.05 31.9882C43.6023 31.2246 43.8875 30.4142 43.86 29.5673C43.8591 29.2994 43.8143 29.0383 43.6998 28.8059C43.5887 28.5581 43.3574 28.2584 42.946 28.2584C42.7908 28.2584 42.6722 28.3226 42.617 28.3558C42.5508 28.3958 42.4912 28.4445 42.441 28.4899C42.3397 28.5816 42.228 28.705 42.1092 28.8483L42.1092 28.8483L42.1057 28.8526C41.9971 28.9867 41.8889 29.0359 41.7548 29.0389C41.7531 29.0236 41.752 29.0047 41.752 28.9814C41.752 28.902 41.7571 28.8442 41.7639 28.8044C41.7689 28.7744 41.7739 28.7608 41.7746 28.7588ZM31.0941 28.7383C30.9729 28.5068 30.7476 28.2584 30.373 28.2584C30.2178 28.2584 30.0992 28.3226 30.0441 28.3558C29.9778 28.3958 29.9183 28.4445 29.8681 28.4899C29.7668 28.5816 29.6551 28.705 29.5363 28.8483L29.5363 28.8483L29.5328 28.8526C29.4241 28.9867 29.316 29.0359 29.1818 29.0389C29.1802 29.0236 29.1791 29.0047 29.1791 28.9814C29.1791 28.902 29.1842 28.8443 29.1909 28.8044C29.196 28.7744 29.2009 28.7608 29.2016 28.7588L29.2194 28.7238L29.2318 28.6839L31.2935 22.0576C31.6241 21.3184 31.9817 20.8206 32.3471 20.5199C32.7424 20.1946 33.0728 20.0762 33.3469 20.0762C33.5263 20.0762 33.648 20.1302 33.7484 20.2294L33.7705 20.2512L33.7952 20.2701C33.8805 20.3357 33.9385 20.427 33.9385 20.6171C33.9385 20.7235 33.9016 20.9155 33.7844 21.2163L33.784 21.2174L31.7151 26.5667C31.7148 26.5674 31.7146 26.5681 31.7143 26.5688C31.4132 27.3291 31.2044 28.0529 31.0941 28.7383Z" fill="white" stroke="#4D7C0F"/>
</svg>
