<svg width="48" height="48" viewBox="0 0 48 48" fill="none" xmlns="http://www.w3.org/2000/svg">
<path d="M42.6012 27.815L44.5746 21.5212C44.8572 20.6803 45 19.82 45 18.9442C45 17.244 44.4356 15.785 43.2675 14.6593C42.1202 13.5289 40.623 13 38.8805 13C37.2675 13 35.7619 13.3719 34.3815 14.1216C33.4623 14.6046 32.6114 15.3185 31.8208 16.2344C31.511 15.592 31.0775 15.0184 30.5177 14.5229C29.3982 13.4841 27.9631 13 26.3075 13C24.8361 13 23.4473 13.3027 22.1538 13.9136L22.1538 13.9136L22.1461 13.9173C21.3566 14.2984 20.6126 14.8478 19.9095 15.5463C19.6872 15.0742 19.3771 14.6468 18.9728 14.2735C18.0388 13.3877 16.8026 13 15.3909 13C13.7407 13 12.1494 13.2364 10.6212 13.7121C9.86719 13.9347 9.21732 14.1943 8.7144 14.5096C8.22881 14.8141 7.7513 15.2525 7.57799 15.8821C7.45929 16.2838 7.41958 16.823 7.74863 17.3104L7.74863 17.3104C7.92953 17.5784 8.18977 17.821 8.46011 18.0366C8.67857 18.2325 8.77423 18.3464 8.80265 18.3885L8.81775 18.4109C8.81881 18.4231 8.81969 18.4397 8.81969 18.461C8.81969 18.5368 8.8153 18.5866 8.81117 18.6152C8.81053 18.6196 8.80995 18.6231 8.80945 18.626L8.80204 18.6443L8.78974 18.6837L5.43947 29.4272L5.43722 29.4344L5.43508 29.4417C5.2772 29.9762 5.11842 30.2402 5.01846 30.3487C4.85567 30.5256 4.63782 30.6943 4.34836 30.8469C3.81249 31.1273 3.29234 31.5496 3.0751 32.1932L3.0572 32.2462L3.04533 32.301C2.97244 32.6369 2.98055 33.0006 3.12114 33.3554C3.26018 33.7063 3.49912 33.9738 3.76619 34.1716L3.77208 34.176L3.77803 34.1803C4.32083 34.5701 5.0559 34.6654 5.75419 34.6654H14.3369C15.1667 34.6654 15.9141 34.5934 16.4735 34.3724C17.0691 34.1372 17.5675 33.7029 17.7761 33.0335L17.7791 33.0238L17.782 33.014C17.8895 32.6424 17.8933 32.1903 17.6384 31.7707L16.7837 32.29L17.6384 31.7707C17.4861 31.5201 17.2741 31.3054 17.0612 31.1244C16.8978 30.9805 16.7883 30.8635 16.7184 30.7742C16.7086 30.75 16.6921 30.6922 16.6921 30.5799C16.6921 30.4684 16.7145 30.3254 16.7811 30.1448L16.7897 30.1213L16.7972 30.0974L19.2723 22.1718C19.5349 21.4901 19.8194 21.116 20.0656 20.9269L20.0789 20.9167L20.0919 20.906C20.4307 20.6271 20.6523 20.5762 20.774 20.5762C20.7943 20.5762 20.8071 20.5779 20.8137 20.5791C20.8159 20.5794 20.8175 20.5798 20.8187 20.5801C20.8199 20.5811 20.8217 20.5827 20.8242 20.5851L20.865 20.6255C20.8637 20.6397 20.8595 20.6722 20.8464 20.7266C20.8281 20.8025 20.7964 20.9043 20.7456 21.0349L20.7447 21.037L18.6758 26.3865C18.1933 27.6051 17.9294 28.7598 17.9294 29.8364V29.8464L17.9296 29.8563C17.9606 31.4146 18.5986 32.7144 19.8177 33.6714L19.8239 33.6763L19.8303 33.6811C21.0346 34.596 22.5882 35 24.3877 35C25.8421 35 27.1421 34.7745 28.255 34.2827L28.2551 34.2828L28.2657 34.278C29.3543 33.7818 30.2448 33.1312 30.8719 32.2952L30.8771 32.2883L30.8822 32.2812C30.9355 32.2075 30.9867 32.1331 31.0357 32.0581C31.3504 32.6692 31.803 33.2101 32.3906 33.6714L32.3969 33.6763L32.4032 33.6811C33.6075 34.596 35.1611 35 36.9607 35C38.4151 35 39.715 34.7745 40.828 34.2827L40.828 34.2828L40.8386 34.278C41.9272 33.7818 42.8178 33.1312 43.4448 32.2952L43.45 32.2883L43.4551 32.2812C44.0581 31.4476 44.3899 30.5331 44.36 29.5583C44.3581 29.2426 44.3052 28.9068 44.1518 28.5921C44.0016 28.2634 43.6383 27.7584 42.946 27.7584C42.8132 27.7584 42.6966 27.7832 42.6012 27.815ZM31.2487 26.3865C31.0551 26.8756 30.8966 27.3544 30.7763 27.822C30.6564 27.7819 30.5224 27.7584 30.373 27.7584C30.239 27.7584 30.1214 27.7837 30.0255 27.8159L31.7619 22.235C32.0708 21.5516 32.3842 21.1369 32.6648 20.906C33.0036 20.6271 33.2253 20.5762 33.3469 20.5762C33.3672 20.5762 33.38 20.5779 33.3866 20.5791C33.3888 20.5794 33.3904 20.5798 33.3916 20.5801C33.3929 20.5811 33.3947 20.5827 33.3971 20.5851L33.4379 20.6255C33.4366 20.6397 33.4325 20.6722 33.4193 20.7266C33.401 20.8025 33.3694 20.9043 33.3185 21.0349L33.3177 21.037L31.2487 26.3865Z" fill="white" stroke="#4D7C0F" stroke-width="2"/>
</svg>
