<svg width="24" height="24" viewBox="0 0 24 24" fill="none" xmlns="http://www.w3.org/2000/svg">
<path d="M21.3006 13.9075L22.2873 10.7606C22.4286 10.3401 22.5 9.90998 22.5 9.47212C22.5 8.62199 22.2178 7.89251 21.6338 7.32965C21.0601 6.76445 20.3115 6.5 19.4402 6.5C18.6337 6.5 17.8809 6.68597 17.1907 7.06082C16.7312 7.30231 16.3057 7.65924 15.9104 8.11718C15.7555 7.79599 15.5387 7.50919 15.2588 7.26145C14.6991 6.74206 13.9815 6.5 13.1538 6.5C12.4181 6.5 11.7237 6.65134 11.0769 6.95681L11.0769 6.9568L11.073 6.95865C10.6783 7.14922 10.3063 7.42391 9.95475 7.77316C9.84362 7.53712 9.68855 7.32339 9.48638 7.13676C9.01939 6.69384 8.40128 6.5 7.69546 6.5C6.87033 6.5 6.07469 6.61821 5.3106 6.85607C4.9336 6.96733 4.60866 7.09715 4.3572 7.25482C4.11441 7.40706 3.87565 7.62625 3.78899 7.94107C3.72964 8.1419 3.70979 8.4115 3.87431 8.65522L3.87432 8.65522C3.96476 8.78921 4.09488 8.91051 4.23005 9.01832C4.33928 9.11624 4.38711 9.17321 4.40133 9.19426L4.40887 9.20544C4.40941 9.21156 4.40984 9.21983 4.40984 9.23048C4.40984 9.2684 4.40765 9.2933 4.40558 9.3076C4.40527 9.30979 4.40498 9.31157 4.40473 9.31299L4.40102 9.32214L4.39487 9.34186L2.71973 14.7136L2.71968 14.7136L2.71754 14.7208C2.6386 14.9881 2.55921 15.1201 2.50923 15.1744C2.42786 15.2628 2.31896 15.3471 2.17429 15.4234C1.90632 15.5636 1.64619 15.7748 1.53755 16.0966L1.5286 16.1231L1.52266 16.1505C1.48622 16.3184 1.49028 16.5003 1.56057 16.6777C1.63009 16.8531 1.74956 16.9869 1.8831 17.0858L1.88306 17.0859L1.88901 17.0901C2.16042 17.285 2.52795 17.3327 2.87709 17.3327H7.16845C7.58335 17.3327 7.95704 17.2967 8.23677 17.1862C8.53455 17.0686 8.78377 16.8515 8.88806 16.5168L8.88816 16.5168L8.89099 16.507C8.94474 16.3212 8.94663 16.0951 8.81918 15.8854L8.39187 16.145L8.81918 15.8854C8.74301 15.76 8.63698 15.6527 8.53049 15.5621C8.44886 15.4902 8.39413 15.4318 8.35918 15.3871C8.35431 15.375 8.34604 15.3461 8.34604 15.29C8.34604 15.2342 8.35727 15.1627 8.39053 15.0724L8.39486 15.0606L8.39859 15.0487L9.63617 11.0859C9.76744 10.745 9.90969 10.558 10.0328 10.4634L10.0394 10.4583L10.0459 10.453C10.2153 10.3136 10.3262 10.2881 10.387 10.2881C10.3971 10.2881 10.4035 10.2889 10.4068 10.2895C10.4079 10.2897 10.4088 10.2899 10.4093 10.2901C10.41 10.2906 10.4109 10.2914 10.4121 10.2926L10.4325 10.3127C10.4318 10.3198 10.4298 10.3361 10.4232 10.3633C10.4141 10.4013 10.3982 10.4521 10.3728 10.5174L10.3724 10.5185L9.3379 13.1932C9.09667 13.8025 8.96471 14.3799 8.96471 14.9182H8.96461L8.96481 14.9281C8.98028 15.7073 9.29929 16.3572 9.90885 16.8357L9.90881 16.8357L9.91513 16.8405C10.5173 17.298 11.2941 17.5 12.1939 17.5C12.9211 17.5 13.571 17.3872 14.1275 17.1414L14.1275 17.1414L14.1328 17.139C14.6772 16.8909 15.1224 16.5656 15.4359 16.1476L15.436 16.1476L15.4411 16.1406C15.4677 16.1037 15.4934 16.0666 15.5179 16.0291C15.6752 16.3346 15.9015 16.6051 16.1953 16.8357L16.1953 16.8357L16.2016 16.8405C16.8038 17.298 17.5806 17.5 18.4803 17.5C19.2075 17.5 19.8575 17.3872 20.414 17.1414L20.414 17.1414L20.4193 17.139C20.9636 16.8909 21.4089 16.5656 21.7224 16.1476L21.7225 16.1477L21.7276 16.1406C22.029 15.7238 22.1949 15.2666 22.18 14.7791C22.179 14.6213 22.1526 14.4534 22.0759 14.296C22.0008 14.1317 21.8191 13.8792 21.473 13.8792C21.4066 13.8792 21.3483 13.8916 21.3006 13.9075ZM15.6243 13.1933C15.5275 13.4378 15.4483 13.6772 15.3882 13.911C15.3282 13.8909 15.2612 13.8792 15.1865 13.8792C15.1195 13.8792 15.0607 13.8919 15.0127 13.9079L15.881 11.1175C16.0354 10.7758 16.1921 10.5684 16.3324 10.453C16.5018 10.3136 16.6126 10.2881 16.6734 10.2881C16.6836 10.2881 16.69 10.2889 16.6933 10.2895C16.6944 10.2897 16.6952 10.2899 16.6958 10.2901C16.6964 10.2906 16.6973 10.2914 16.6985 10.2926L16.719 10.3127C16.7183 10.3198 16.7162 10.3361 16.7097 10.3633C16.7005 10.4013 16.6847 10.4521 16.6593 10.5174L16.6588 10.5185L15.6243 13.1933Z" fill="white" stroke="#4D7C0F"/>
</svg>
