<svg width="22" height="12" viewBox="0 0 22 12" fill="none" xmlns="http://www.w3.org/2000/svg">
<path d="M20.3006 7.90749L21.2873 4.76061C21.4286 4.34013 21.5 3.90998 21.5 3.47212C21.5 2.62199 21.2178 1.89251 20.6338 1.32965C20.0601 0.764455 19.3115 0.5 18.4402 0.5C17.6337 0.5 16.8809 0.685969 16.1907 1.06082C15.7312 1.30231 15.3057 1.65924 14.9104 2.11718C14.7555 1.79599 14.5387 1.50921 14.2588 1.26147C13.6991 0.742063 12.9815 0.5 12.1538 0.5C11.4181 0.5 10.7237 0.651336 10.0769 0.956812L10.0769 0.956796L10.073 0.958654C9.67832 1.14922 9.30629 1.42391 8.95475 1.77316C8.84362 1.53712 8.68855 1.32339 8.48638 1.13676C8.01939 0.693839 7.40128 0.5 6.69546 0.5C5.87033 0.5 5.07469 0.618207 4.3106 0.856066C3.9336 0.967333 3.60866 1.09715 3.3572 1.25482C3.11441 1.40706 2.87565 1.62625 2.78899 1.94107C2.72964 2.14189 2.70979 2.4115 2.87432 2.65522L2.87432 2.65522C2.96476 2.78921 3.09488 2.91051 3.23005 3.01832C3.33928 3.11624 3.38711 3.17321 3.40133 3.19426L3.40887 3.20544C3.40941 3.21156 3.40984 3.21983 3.40984 3.23048C3.40984 3.2684 3.40765 3.2933 3.40558 3.3076C3.40527 3.30979 3.40498 3.31158 3.40473 3.31299L3.40102 3.32214L3.39487 3.34186L1.71973 8.7136L1.71968 8.71358L1.71754 8.72083C1.6386 8.9881 1.55921 9.12008 1.50923 9.17437C1.42784 9.26279 1.31891 9.34714 1.17418 9.42344C0.906246 9.56366 0.646172 9.7748 0.537552 10.0966L0.5286 10.1231L0.522664 10.1505C0.486219 10.3184 0.490277 10.5003 0.560571 10.6777C0.630091 10.8531 0.749558 10.9869 0.883096 11.0858L0.883064 11.0859L0.889014 11.0901C1.16042 11.2851 1.52795 11.3327 1.87709 11.3327H6.16845C6.58335 11.3327 6.95704 11.2967 7.23677 11.1862C7.53455 11.0686 7.78377 10.8515 7.88806 10.5168L7.88816 10.5168L7.89099 10.507C7.94474 10.3212 7.94663 10.0951 7.81918 9.88536L7.41539 10.1307L7.81918 9.88536C7.74302 9.76 7.637 9.65267 7.53052 9.56213C7.44887 9.49021 7.39414 9.43176 7.35918 9.38711C7.35431 9.37498 7.34604 9.34611 7.34604 9.28996C7.34604 9.23419 7.35727 9.16272 7.39053 9.0724L7.39486 9.06064L7.39859 9.04868L8.63617 5.0859C8.76744 4.74505 8.90969 4.55799 9.03279 4.46344L9.03945 4.45833L9.04594 4.45299C9.21535 4.31357 9.32617 4.2881 9.38698 4.2881C9.39715 4.2881 9.40354 4.28894 9.40684 4.28953C9.40793 4.28972 9.40876 4.28991 9.40934 4.29005C9.40996 4.29056 9.41087 4.29137 9.41208 4.29256L9.4325 4.31273C9.43184 4.31983 9.42976 4.33612 9.42321 4.36329C9.41405 4.40127 9.39822 4.45214 9.37279 4.51743L9.37236 4.51852L8.33789 7.19324C8.09667 7.80253 7.96471 8.3799 7.96471 8.91822H7.96461L7.96481 8.92814C7.98028 9.70732 8.29929 10.3572 8.90885 10.8357L8.90881 10.8357L8.91513 10.8405C9.51731 11.298 10.2941 11.5 11.1939 11.5C11.9211 11.5 12.571 11.3872 13.1275 11.1414L13.1275 11.1414L13.1328 11.139C13.6772 10.8909 14.1224 10.5656 14.4359 10.1476L14.436 10.1476L14.4411 10.1406C14.4677 10.1037 14.4933 10.0666 14.5179 10.0291C14.6752 10.3346 14.9015 10.6051 15.1953 10.8357L15.1953 10.8357L15.2016 10.8405C15.8038 11.298 16.5806 11.5 17.4803 11.5C18.2075 11.5 18.8575 11.3872 19.414 11.1414L19.414 11.1414L19.4193 11.139C19.9636 10.8909 20.4089 10.5656 20.7224 10.1476L20.7225 10.1477L20.7276 10.1406C21.0291 9.72375 21.195 9.26653 21.18 8.77906C21.179 8.62126 21.1526 8.45338 21.0759 8.29606C21.0008 8.13172 20.8191 7.87918 20.473 7.87918C20.4066 7.87918 20.3483 7.89161 20.3006 7.90749ZM14.6243 7.19326C14.5275 7.43781 14.4483 7.67722 14.3882 7.91103C14.3282 7.89094 14.2612 7.87918 14.1865 7.87918C14.1195 7.87918 14.0607 7.89185 14.0127 7.90795L14.881 5.11751C15.0354 4.77581 15.1921 4.56844 15.3324 4.45299C15.5018 4.31357 15.6126 4.2881 15.6734 4.2881C15.6836 4.2881 15.69 4.28894 15.6933 4.28953C15.6944 4.28972 15.6952 4.28991 15.6958 4.29005C15.6964 4.29056 15.6973 4.29137 15.6985 4.29257L15.719 4.31273C15.7183 4.31983 15.7162 4.33612 15.7097 4.36329C15.7005 4.40127 15.6847 4.45214 15.6593 4.51743L15.6588 4.51852L14.6243 7.19326Z" fill="white" stroke="#4D7C0F"/>
</svg>
